solid Camera V2
facet normal 0.0 0.0 -1.0
  outer loop
    vertex 818.0998103312411 682.02091210074 0.0
    vertex 840.099810331241 660.0209121007407 0.0
    vertex 818.0998103312403 660.0209121007391 0.0
  endloop
endfacet
facet normal 0.0 0.0 -1.0
  outer loop
    vertex 840.099810331241 660.0209121007407 0.0
    vertex 818.0998103312411 682.02091210074 0.0
    vertex 840.099810331242 682.0209121007412 0.0
  endloop
endfacet
facet normal 3.885780586188048e-16 -1.0 0.0
  outer loop
    vertex 840.099810331241 660.0209121007407 0.0
    vertex 823.099810331241 660.0209121007406 0.6499999999999998
    vertex 818.0998103312403 660.0209121007391 0.0
  endloop
endfacet
facet normal 3.885780586188048e-16 -1.0 0.0
  outer loop
    vertex 823.099810331241 660.0209121007406 0.6499999999999998
    vertex 840.099810331241 660.0209121007407 0.0
    vertex 840.099810331241 660.0209121007407 3.0
  endloop
endfacet
facet normal 3.885780586188048e-16 -1.0 0.0
  outer loop
    vertex 823.099810331241 660.0209121007406 0.6499999999999998
    vertex 840.099810331241 660.0209121007407 3.0
    vertex 823.099810331241 660.0209121007406 2.3499999999999996
  endloop
endfacet
facet normal 3.885780586188048e-16 -1.0 0.0
  outer loop
    vertex 823.099810331241 660.0209121007406 2.3499999999999996
    vertex 840.099810331241 660.0209121007407 3.0
    vertex 818.0998103312403 660.0209121007391 2.3499999999999996
  endloop
endfacet
facet normal 3.885780586188048e-16 -1.0 0.0
  outer loop
    vertex 818.0998103312403 660.0209121007391 2.3499999999999996
    vertex 840.099810331241 660.0209121007407 3.0
    vertex 818.0998103312403 660.0209121007391 3.0
  endloop
endfacet
facet normal 3.885780586188048e-16 -1.0 0.0
  outer loop
    vertex 818.0998103312403 660.0209121007391 0.6499999999999998
    vertex 818.0998103312403 660.0209121007391 0.0
    vertex 823.099810331241 660.0209121007406 0.6499999999999998
  endloop
endfacet
facet normal -3.885780586188048e-16 1.0 0.0
  outer loop
    vertex 818.0998103312411 682.02091210074 0.6499999999999998
    vertex 840.099810331242 682.0209121007412 0.0
    vertex 818.0998103312411 682.02091210074 0.0
  endloop
endfacet
facet normal -3.885780586188048e-16 1.0 0.0
  outer loop
    vertex 840.099810331242 682.0209121007412 0.0
    vertex 818.0998103312411 682.02091210074 0.6499999999999998
    vertex 840.099810331242 682.0209121007412 0.6499999999999999
  endloop
endfacet
facet normal -1.0 -3.885780586188048e-16 0.0
  outer loop
    vertex 818.0998103312411 682.02091210074 0.6499999999999998
    vertex 818.0998103312403 660.0209121007391 0.0
    vertex 818.0998103312403 660.0209121007391 0.6499999999999998
  endloop
endfacet
facet normal -1.0 -3.885780586188048e-16 0.0
  outer loop
    vertex 818.0998103312403 660.0209121007391 0.0
    vertex 818.0998103312411 682.02091210074 0.6499999999999998
    vertex 818.0998103312411 682.02091210074 0.0
  endloop
endfacet
facet normal -2.5076595703506428e-18 -1.0069626808837198e-19 1.0
  outer loop
    vertex 823.099810331241 660.0209121007406 0.6499999999999998
    vertex 818.0998103312411 682.02091210074 0.6499999999999998
    vertex 818.0998103312403 660.0209121007391 0.6499999999999998
  endloop
endfacet
facet normal -2.5076595703506428e-18 -1.0069626808837198e-19 1.0
  outer loop
    vertex 818.0998103312411 682.02091210074 0.6499999999999998
    vertex 823.099810331241 660.0209121007406 0.6499999999999998
    vertex 823.0998103312409 677.020912100741 0.6499999999999998
  endloop
endfacet
facet normal -2.5076595703506428e-18 -1.0069626808837198e-19 1.0
  outer loop
    vertex 823.0998103312409 677.020912100741 0.6499999999999998
    vertex 840.099810331242 682.0209121007412 0.6499999999999999
    vertex 818.0998103312411 682.02091210074 0.6499999999999998
  endloop
endfacet
facet normal -2.5076595703506428e-18 -1.0069626808837198e-19 1.0
  outer loop
    vertex 840.099810331242 682.0209121007412 0.6499999999999999
    vertex 823.0998103312409 677.020912100741 0.6499999999999998
    vertex 840.099810331241 677.0209121007388 0.6499999999999999
  endloop
endfacet
facet normal -1.0 -3.885780586188048e-16 0.0
  outer loop
    vertex 823.0998103312409 677.020912100741 2.35
    vertex 823.099810331241 660.0209121007406 0.6499999999999998
    vertex 823.099810331241 660.0209121007406 2.3499999999999996
  endloop
endfacet
facet normal -1.0 -3.885780586188048e-16 0.0
  outer loop
    vertex 823.099810331241 660.0209121007406 0.6499999999999998
    vertex 823.0998103312409 677.020912100741 2.35
    vertex 823.0998103312409 677.020912100741 0.6499999999999998
  endloop
endfacet
facet normal -1.0 -3.885780586188048e-16 0.0
  outer loop
    vertex 818.0998103312411 682.02091210074 3.0
    vertex 818.0998103312403 660.0209121007391 2.3499999999999996
    vertex 818.0998103312403 660.0209121007391 3.0
  endloop
endfacet
facet normal -1.0 -3.885780586188048e-16 0.0
  outer loop
    vertex 818.0998103312403 660.0209121007391 2.3499999999999996
    vertex 818.0998103312411 682.02091210074 3.0
    vertex 818.0998103312411 682.02091210074 2.35
  endloop
endfacet
facet normal -3.885780586188048e-16 1.0 0.0
  outer loop
    vertex 818.0998103312411 682.02091210074 3.0
    vertex 840.099810331242 682.0209121007412 2.35
    vertex 818.0998103312411 682.02091210074 2.35
  endloop
endfacet
facet normal -3.885780586188048e-16 1.0 0.0
  outer loop
    vertex 840.099810331242 682.0209121007412 2.35
    vertex 818.0998103312411 682.02091210074 3.0
    vertex 840.099810331242 682.0209121007412 3.0
  endloop
endfacet
facet normal -0.0 -0.0 1.0
  outer loop
    vertex 818.0998103312403 660.0209121007391 3.0
    vertex 823.755650491827 669.2940041282887 3.0
    vertex 818.0998103312411 682.02091210074 3.0
  endloop
endfacet
facet normal -0.0 -0.0 1.0
  outer loop
    vertex 823.755650491827 669.2940041282887 3.0
    vertex 818.0998103312403 660.0209121007391 3.0
    vertex 830.8267183036929 662.2229363164226 3.0
  endloop
endfacet
facet normal -0.0 -0.0 1.0
  outer loop
    vertex 830.8267183036929 662.2229363164226 3.0
    vertex 818.0998103312403 660.0209121007391 3.0
    vertex 840.099810331241 660.0209121007407 3.0
  endloop
endfacet
facet normal -0.0 -0.0 1.0
  outer loop
    vertex 830.8267183036929 662.2229363164226 3.0
    vertex 840.099810331241 660.0209121007407 3.0
    vertex 837.8977861155583 669.2940041282883 3.0
  endloop
endfacet
facet normal -0.0 -0.0 1.0
  outer loop
    vertex 818.0998103312411 682.02091210074 3.0
    vertex 830.8267183036926 676.3650719401542 3.0
    vertex 840.099810331242 682.0209121007412 3.0
  endloop
endfacet
facet normal -0.0 -0.0 1.0
  outer loop
    vertex 830.8267183036926 676.3650719401542 3.0
    vertex 818.0998103312411 682.02091210074 3.0
    vertex 823.755650491827 669.2940041282887 3.0
  endloop
endfacet
facet normal -0.0 -0.0 1.0
  outer loop
    vertex 840.099810331242 682.0209121007412 3.0
    vertex 830.8267183036926 676.3650719401542 3.0
    vertex 837.8977861155583 669.2940041282883 3.0
  endloop
endfacet
facet normal -0.0 -0.0 1.0
  outer loop
    vertex 840.099810331242 682.0209121007412 3.0
    vertex 837.8977861155583 669.2940041282883 3.0
    vertex 840.099810331241 660.0209121007407 3.0
  endloop
endfacet
facet normal 1.0 3.885780586188048e-16 0.0
  outer loop
    vertex 840.099810331241 660.0209121007407 0.0
    vertex 840.099810331241 677.0209121007388 0.6499999999999999
    vertex 840.099810331241 660.0209121007407 3.0
  endloop
endfacet
facet normal 1.0 3.885780586188048e-16 0.0
  outer loop
    vertex 840.099810331241 677.0209121007388 0.6499999999999999
    vertex 840.099810331241 660.0209121007407 0.0
    vertex 840.099810331242 682.0209121007412 0.0
  endloop
endfacet
facet normal 1.0 3.885780586188048e-16 0.0
  outer loop
    vertex 840.099810331241 677.0209121007388 0.6499999999999999
    vertex 840.099810331242 682.0209121007412 0.0
    vertex 840.099810331242 682.0209121007412 0.6499999999999999
  endloop
endfacet
facet normal 1.0 3.885780586188048e-16 0.0
  outer loop
    vertex 840.099810331241 660.0209121007407 3.0
    vertex 840.099810331241 677.0209121007388 2.35
    vertex 840.099810331242 682.0209121007412 3.0
  endloop
endfacet
facet normal 1.0 3.885780586188048e-16 0.0
  outer loop
    vertex 840.099810331241 677.0209121007388 2.35
    vertex 840.099810331241 660.0209121007407 3.0
    vertex 840.099810331241 677.0209121007388 0.6499999999999999
  endloop
endfacet
facet normal 1.0 3.885780586188048e-16 0.0
  outer loop
    vertex 840.099810331242 682.0209121007412 3.0
    vertex 840.099810331241 677.0209121007388 2.35
    vertex 840.099810331242 682.0209121007412 2.35
  endloop
endfacet
facet normal -3.885780586188048e-16 1.0 0.0
  outer loop
    vertex 823.0998103312409 677.020912100741 2.35
    vertex 840.099810331241 677.0209121007388 0.6499999999999999
    vertex 823.0998103312409 677.020912100741 0.6499999999999998
  endloop
endfacet
facet normal -3.885780586188048e-16 1.0 0.0
  outer loop
    vertex 840.099810331241 677.0209121007388 0.6499999999999999
    vertex 823.0998103312409 677.020912100741 2.35
    vertex 840.099810331241 677.0209121007388 2.35
  endloop
endfacet
facet normal 9.92588302514711e-18 1.0924282909075532e-17 -1.0
  outer loop
    vertex 840.099810331242 682.0209121007412 2.35
    vertex 823.0998103312409 677.020912100741 2.35
    vertex 818.0998103312411 682.02091210074 2.35
  endloop
endfacet
facet normal 9.92588302514711e-18 1.0924282909075532e-17 -1.0
  outer loop
    vertex 823.0998103312409 677.020912100741 2.35
    vertex 840.099810331242 682.0209121007412 2.35
    vertex 840.099810331241 677.0209121007388 2.35
  endloop
endfacet
facet normal 9.92588302514711e-18 1.0924282909075532e-17 -1.0
  outer loop
    vertex 818.0998103312411 682.02091210074 2.35
    vertex 823.099810331241 660.0209121007406 2.3499999999999996
    vertex 818.0998103312403 660.0209121007391 2.3499999999999996
  endloop
endfacet
facet normal 9.92588302514711e-18 1.0924282909075532e-17 -1.0
  outer loop
    vertex 823.099810331241 660.0209121007406 2.3499999999999996
    vertex 818.0998103312411 682.02091210074 2.35
    vertex 823.0998103312409 677.020912100741 2.35
  endloop
endfacet
facet normal 0.5000000000001971 -0.500000000000217 -0.7071067811862547
  outer loop
    vertex 843.847533583862 678.9006058460899 21.41421356238065
    vertex 843.2262132403027 675.2792855025313 23.535533905941687
    vertex 841.7262132403027 676.77928550253 21.41421356238106
  endloop
endfacet
facet normal 0.5000000000001971 -0.500000000000217 -0.7071067811862547
  outer loop
    vertex 843.2262132403027 675.2792855025313 23.535533905941687
    vertex 843.847533583862 678.9006058460899 21.41421356238065
    vertex 845.3475335838622 677.4006058460911 23.535533905941215
  endloop
endfacet
facet normal -0.5000000000000299 0.4999999999999234 -0.7071067811865805
  outer loop
    vertex 826.9982911789472 666.0513634411686 21.414213562375284
    vertex 820.3059030235222 654.358975285743 17.87867965644379
    vertex 817.8059030235222 656.8589752857429 21.414213562376315
  endloop
endfacet
facet normal -0.5000000000000299 0.4999999999999234 -0.7071067811865805
  outer loop
    vertex 820.3059030235222 654.358975285743 17.87867965644379
    vertex 826.9982911789472 666.0513634411686 21.414213562375284
    vertex 829.4982911789475 663.5513634411682 17.878679656442497
  endloop
endfacet
facet normal -0.7071067811865875 -0.7071067811865076 1.658302202175047e-13
  outer loop
    vertex 859.8475335838656 662.9006058460895 44.041630560345766
    vertex 845.3475335838616 677.4006058460891 19.292893218821288
    vertex 861.3475335838663 661.4006058460893 41.92031021678589
  endloop
endfacet
facet normal -0.7071067811865875 -0.7071067811865076 1.658302202175047e-13
  outer loop
    vertex 845.3475335838616 677.4006058460891 19.292893218821288
    vertex 859.8475335838656 662.9006058460895 44.041630560345766
    vertex 858.3475335838657 664.400605846089 41.92031021678599
  endloop
endfacet
facet normal -0.7071067811865875 -0.7071067811865076 1.658302202175047e-13
  outer loop
    vertex 845.3475335838616 677.4006058460891 19.292893218821288
    vertex 858.3475335838657 664.400605846089 41.92031021678599
    vertex 857.347533583868 665.400605846088 43.334523779156484
  endloop
endfacet
facet normal -0.7071067811865875 -0.7071067811865076 1.658302202175047e-13
  outer loop
    vertex 845.3475335838616 677.4006058460891 19.292893218821288
    vertex 857.347533583868 665.400605846088 43.334523779156484
    vertex 845.3475335838622 677.4006058460911 23.535533905941215
  endloop
endfacet
facet normal -0.7071067811865875 -0.7071067811865076 1.658302202175047e-13
  outer loop
    vertex 845.3475335838622 677.4006058460911 23.535533905941215
    vertex 857.347533583868 665.400605846088 43.334523779156484
    vertex 844.3475335838642 678.4006058460885 24.94974746830966
  endloop
endfacet
facet normal -0.7071067811865875 -0.7071067811865076 1.658302202175047e-13
  outer loop
    vertex 843.847533583862 678.9006058460899 21.41421356238065
    vertex 845.3475335838616 677.4006058460891 19.292893218821288
    vertex 845.3475335838622 677.4006058460911 23.535533905941215
  endloop
endfacet
facet normal 0.7071067811863347 0.7071067811867603 6.02195079338834e-14
  outer loop
    vertex 822.341436929455 659.3945091916771 22.82842712475187
    vertex 824.8414369294544 656.8945091916792 23.535533905941126
    vertex 823.3414369294542 658.3945091916781 21.414213562380777
  endloop
endfacet
facet normal 0.7071067811863347 0.7071067811867603 6.02195079338834e-14
  outer loop
    vertex 824.8414369294544 656.8945091916792 23.535533905941126
    vertex 822.341436929455 659.3945091916771 22.82842712475187
    vertex 823.8414369294542 657.8945091916781 24.949747468312555
  endloop
endfacet
facet normal 0.5000000000001529 -0.500000000000091 -0.707106781186375
  outer loop
    vertex 837.8414369294585 643.8945091916781 41.92031021678682
    vertex 837.2201165858983 640.2731888481187 44.041630560346825
    vertex 835.7201165858988 641.7731888481181 41.92031021678682
  endloop
endfacet
facet normal 0.5000000000001529 -0.500000000000091 -0.707106781186375
  outer loop
    vertex 837.2201165858983 640.2731888481187 44.041630560346825
    vertex 837.8414369294585 643.8945091916781 41.92031021678682
    vertex 839.3414369294582 642.3945091916786 44.04163056034681
  endloop
endfacet
facet normal 0.5000000000000344 -0.4999999999999208 0.7071067811865792
  outer loop
    vertex 822.7201165858938 654.7731888481185 19.29289321882267
    vertex 823.3414369294542 658.3945091916781 21.414213562380777
    vertex 821.2201165858953 656.2731888481181 21.414213562380663
  endloop
endfacet
facet normal 0.5000000000000344 -0.4999999999999208 0.7071067811865792
  outer loop
    vertex 823.3414369294542 658.3945091916781 21.414213562380777
    vertex 822.7201165858938 654.7731888481185 19.29289321882267
    vertex 830.4982911789469 662.5513634411689 19.292893218819522
  endloop
endfacet
facet normal 0.5000000000000344 -0.4999999999999208 0.7071067811865792
  outer loop
    vertex 823.3414369294542 658.3945091916781 21.414213562380777
    vertex 830.4982911789469 662.5513634411689 19.292893218819522
    vertex 827.9982911789477 665.0513634411689 22.828427124750036
  endloop
endfacet
facet normal 0.5000000000000344 -0.4999999999999208 0.7071067811865792
  outer loop
    vertex 827.9982911789477 665.0513634411689 22.828427124750036
    vertex 822.341436929455 659.3945091916771 22.82842712475187
    vertex 823.3414369294542 658.3945091916781 21.414213562380777
  endloop
endfacet
facet normal 0.5000000000000344 -0.4999999999999208 0.7071067811865792
  outer loop
    vertex 827.9982911789477 665.0513634411689 22.828427124750036
    vertex 833.069358990814 674.1224312530343 25.656854249493428
    vertex 825.9982911789489 667.0513634411687 25.65685424949424
  endloop
endfacet
facet normal 0.5000000000000344 -0.4999999999999208 0.7071067811865792
  outer loop
    vertex 833.069358990814 674.1224312530343 25.656854249493428
    vertex 827.9982911789477 665.0513634411689 22.828427124750036
    vertex 830.4982911789469 662.5513634411689 19.292893218819522
  endloop
endfacet
facet normal 0.5000000000000344 -0.4999999999999208 0.7071067811865792
  outer loop
    vertex 833.069358990814 674.1224312530343 25.656854249493428
    vertex 830.4982911789469 662.5513634411689 19.292893218819522
    vertex 830.9982911789465 662.0513634411681 18.585786437629093
  endloop
endfacet
facet normal 0.5000000000000344 -0.4999999999999208 0.7071067811865792
  outer loop
    vertex 833.069358990814 674.1224312530343 25.656854249493428
    vertex 830.9982911789465 662.0513634411681 18.585786437629093
    vertex 838.0693589908115 669.1224312530339 18.585786437628457
  endloop
endfacet
facet normal 0.5000000000000344 -0.4999999999999208 0.7071067811865792
  outer loop
    vertex 833.069358990814 674.1224312530343 25.656854249493428
    vertex 838.0693589908115 669.1224312530339 18.585786437628457
    vertex 835.0693589908138 672.1224312530339 22.828427124746955
  endloop
endfacet
facet normal 0.5000000000000344 -0.4999999999999208 0.7071067811865792
  outer loop
    vertex 835.0693589908138 672.1224312530339 22.828427124746955
    vertex 838.0693589908115 669.1224312530339 18.585786437628457
    vertex 837.569358990813 669.6224312530338 19.292893218814676
  endloop
endfacet
facet normal 0.5000000000000344 -0.4999999999999208 0.7071067811865792
  outer loop
    vertex 837.569358990813 669.6224312530338 19.292893218814676
    vertex 840.7262132403057 677.7792855025273 22.828427124748906
    vertex 835.0693589908138 672.1224312530339 22.828427124746955
  endloop
endfacet
facet normal 0.5000000000000344 -0.4999999999999208 0.7071067811865792
  outer loop
    vertex 840.7262132403057 677.7792855025273 22.828427124748906
    vertex 837.569358990813 669.6224312530338 19.292893218814676
    vertex 841.7262132403027 676.77928550253 21.41421356238106
  endloop
endfacet
facet normal 0.5000000000000344 -0.4999999999999208 0.7071067811865792
  outer loop
    vertex 841.7262132403027 676.77928550253 21.41421356238106
    vertex 837.569358990813 669.6224312530338 19.292893218814676
    vertex 845.3475335838616 677.4006058460891 19.292893218821288
  endloop
endfacet
facet normal 0.5000000000000344 -0.4999999999999208 0.7071067811865792
  outer loop
    vertex 841.7262132403027 676.77928550253 21.41421356238106
    vertex 845.3475335838616 677.4006058460891 19.292893218821288
    vertex 843.847533583862 678.9006058460899 21.41421356238065
  endloop
endfacet
facet normal -0.500000000000027 0.49999999999992345 -0.7071067811865827
  outer loop
    vertex 843.2617471462374 682.3148194084586 21.41421356237277
    vertex 836.5693589908132 670.6224312530339 17.878679656441513
    vertex 834.0693589908122 673.1224312530343 21.4142135623745
  endloop
endfacet
facet normal -0.500000000000027 0.49999999999992345 -0.7071067811865827
  outer loop
    vertex 836.5693589908132 670.6224312530339 17.878679656441513
    vertex 843.2617471462374 682.3148194084586 21.41421356237277
    vertex 845.7617471462378 679.8148194084594 17.878679656440422
  endloop
endfacet
facet normal 0.499999999999993 -0.500000000000036 -0.7071067811865271
  outer loop
    vertex 829.4982911789475 663.5513634411682 17.878679656442497
    vertex 822.7201165858938 654.7731888481185 19.29289321882267
    vertex 820.3059030235222 654.358975285743 17.87867965644379
  endloop
endfacet
facet normal 0.499999999999993 -0.500000000000036 -0.7071067811865271
  outer loop
    vertex 822.7201165858938 654.7731888481185 19.29289321882267
    vertex 829.4982911789475 663.5513634411682 17.878679656442497
    vertex 830.4982911789469 662.5513634411689 19.292893218819522
  endloop
endfacet
facet normal 0.499999999999993 -0.500000000000036 -0.7071067811865271
  outer loop
    vertex 845.7617471462378 679.8148194084594 17.878679656440422
    vertex 837.569358990813 669.6224312530338 19.292893218814676
    vertex 836.5693589908132 670.6224312530339 17.878679656441513
  endloop
endfacet
facet normal 0.499999999999993 -0.500000000000036 -0.7071067811865271
  outer loop
    vertex 837.569358990813 669.6224312530338 19.292893218814676
    vertex 845.7617471462378 679.8148194084594 17.878679656440422
    vertex 845.3475335838616 677.4006058460891 19.292893218821288
  endloop
endfacet
facet normal 0.499999999999993 -0.500000000000036 -0.7071067811865271
  outer loop
    vertex 845.3475335838616 677.4006058460891 19.292893218821288
    vertex 845.7617471462378 679.8148194084594 17.878679656440422
    vertex 861.3475335838663 661.4006058460893 41.92031021678589
  endloop
endfacet
facet normal 0.499999999999993 -0.500000000000036 -0.7071067811865271
  outer loop
    vertex 861.3475335838663 661.4006058460893 41.92031021678589
    vertex 845.7617471462378 679.8148194084594 17.878679656440422
    vertex 863.7617471462387 661.814819408463 43.334523779160286
  endloop
endfacet
facet normal 0.499999999999993 -0.500000000000036 -0.7071067811865271
  outer loop
    vertex 822.7201165858938 654.7731888481185 19.29289321882267
    vertex 838.3059030235231 636.3589752857458 43.334523779163035
    vertex 820.3059030235222 654.358975285743 17.87867965644379
  endloop
endfacet
facet normal 0.499999999999993 -0.500000000000036 -0.7071067811865271
  outer loop
    vertex 838.3059030235231 636.3589752857458 43.334523779163035
    vertex 822.7201165858938 654.7731888481185 19.29289321882267
    vertex 838.7201165858982 638.7731888481188 41.92031021678764
  endloop
endfacet
facet normal 0.499999999999993 -0.500000000000036 -0.7071067811865271
  outer loop
    vertex 838.3059030235231 636.3589752857458 43.334523779163035
    vertex 838.7201165858982 638.7731888481188 41.92031021678764
    vertex 863.7617471462387 661.814819408463 43.334523779160286
  endloop
endfacet
facet normal 0.499999999999993 -0.500000000000036 -0.7071067811865271
  outer loop
    vertex 863.7617471462387 661.814819408463 43.334523779160286
    vertex 838.7201165858982 638.7731888481188 41.92031021678764
    vertex 861.3475335838663 661.4006058460893 41.92031021678589
  endloop
endfacet
facet normal -0.5000000000000077 0.49999999999989553 -0.7071067811866161
  outer loop
    vertex 856.7262132403079 661.7792855025293 45.455844122717025
    vertex 839.3414369294582 642.3945091916786 44.04163056034681
    vertex 838.3414369294582 643.394509191678 45.45584412271892
  endloop
endfacet
facet normal -0.5000000000000077 0.49999999999989553 -0.7071067811866161
  outer loop
    vertex 839.3414369294582 642.3945091916786 44.04163056034681
    vertex 838.7201165858982 638.7731888481188 41.92031021678764
    vertex 837.2201165858983 640.2731888481187 44.041630560346825
  endloop
endfacet
facet normal -0.5000000000000077 0.49999999999989553 -0.7071067811866161
  outer loop
    vertex 838.7201165858982 638.7731888481188 41.92031021678764
    vertex 839.3414369294582 642.3945091916786 44.04163056034681
    vertex 861.3475335838663 661.4006058460893 41.92031021678589
  endloop
endfacet
facet normal -0.5000000000000077 0.49999999999989553 -0.7071067811866161
  outer loop
    vertex 861.3475335838663 661.4006058460893 41.92031021678589
    vertex 839.3414369294582 642.3945091916786 44.04163056034681
    vertex 857.7262132403058 660.7792855025305 44.04163056034677
  endloop
endfacet
facet normal -0.5000000000000077 0.49999999999989553 -0.7071067811866161
  outer loop
    vertex 857.7262132403058 660.7792855025305 44.04163056034677
    vertex 839.3414369294582 642.3945091916786 44.04163056034681
    vertex 856.7262132403079 661.7792855025293 45.455844122717025
  endloop
endfacet
facet normal -0.5000000000000077 0.49999999999989553 -0.7071067811866161
  outer loop
    vertex 861.3475335838663 661.4006058460893 41.92031021678589
    vertex 857.7262132403058 660.7792855025305 44.04163056034677
    vertex 859.8475335838656 662.9006058460895 44.041630560345766
  endloop
endfacet
facet normal 0.7071067811864911 0.707106781186604 -7.7656142476804e-14
  outer loop
    vertex 843.2617471462374 682.3148194084586 21.41421356237277
    vertex 863.7617471462387 661.814819408463 43.334523779160286
    vertex 845.7617471462378 679.8148194084594 17.878679656440422
  endloop
endfacet
facet normal 0.7071067811864911 0.707106781186604 -7.7656142476804e-14
  outer loop
    vertex 863.7617471462387 661.814819408463 43.334523779160286
    vertex 843.2617471462374 682.3148194084586 21.41421356237277
    vertex 861.2617471462404 664.3148194084624 46.87005768508959
  endloop
endfacet
facet normal 0.4999999999999246 -0.4999999999998174 0.7071067811867301
  outer loop
    vertex 838.3059030235231 636.3589752857458 43.334523779163035
    vertex 861.2617471462404 664.3148194084624 46.87005768508959
    vertex 835.8059030235248 638.8589752857462 46.87005768509302
  endloop
endfacet
facet normal 0.4999999999999246 -0.4999999999998174 0.7071067811867301
  outer loop
    vertex 861.2617471462404 664.3148194084624 46.87005768508959
    vertex 838.3059030235231 636.3589752857458 43.334523779163035
    vertex 863.7617471462387 661.814819408463 43.334523779160286
  endloop
endfacet
facet normal -0.4999999999999384 0.5000000000000187 0.7071067811865779
  outer loop
    vertex 835.8059030235248 638.8589752857462 46.87005768509302
    vertex 821.7201165858949 655.7731888481185 24.949747468312662
    vertex 817.8059030235222 656.8589752857429 21.414213562376315
  endloop
endfacet
facet normal -0.4999999999999384 0.5000000000000187 0.7071067811865779
  outer loop
    vertex 821.7201165858949 655.7731888481185 24.949747468312662
    vertex 835.8059030235248 638.8589752857462 46.87005768509302
    vertex 834.7201165858987 642.773188848118 43.33452377915913
  endloop
endfacet
facet normal -0.4999999999999384 0.5000000000000187 0.7071067811865779
  outer loop
    vertex 834.7201165858987 642.773188848118 43.33452377915913
    vertex 835.8059030235248 638.8589752857462 46.87005768509302
    vertex 836.8414369294587 644.8945091916778 43.33452377915904
  endloop
endfacet
facet normal -0.4999999999999384 0.5000000000000187 0.7071067811865779
  outer loop
    vertex 836.8414369294587 644.8945091916778 43.33452377915904
    vertex 835.8059030235248 638.8589752857462 46.87005768509302
    vertex 838.3414369294582 643.394509191678 45.45584412271892
  endloop
endfacet
facet normal -0.4999999999999384 0.5000000000000187 0.7071067811865779
  outer loop
    vertex 838.3414369294582 643.394509191678 45.45584412271892
    vertex 835.8059030235248 638.8589752857462 46.87005768509302
    vertex 861.2617471462404 664.3148194084624 46.87005768508959
  endloop
endfacet
facet normal -0.4999999999999384 0.5000000000000187 0.7071067811865779
  outer loop
    vertex 838.3414369294582 643.394509191678 45.45584412271892
    vertex 861.2617471462404 664.3148194084624 46.87005768508959
    vertex 856.7262132403079 661.7792855025293 45.455844122717025
  endloop
endfacet
facet normal -0.4999999999999384 0.5000000000000187 0.7071067811865779
  outer loop
    vertex 856.7262132403079 661.7792855025293 45.455844122717025
    vertex 861.2617471462404 664.3148194084624 46.87005768508959
    vertex 857.347533583868 665.400605846088 43.334523779156484
  endloop
endfacet
facet normal -0.4999999999999384 0.5000000000000187 0.7071067811865779
  outer loop
    vertex 835.0693589908138 672.1224312530339 22.828427124746955
    vertex 843.2617471462374 682.3148194084586 21.41421356237277
    vertex 834.0693589908122 673.1224312530343 21.4142135623745
  endloop
endfacet
facet normal -0.4999999999999384 0.5000000000000187 0.7071067811865779
  outer loop
    vertex 843.2617471462374 682.3148194084586 21.41421356237277
    vertex 835.0693589908138 672.1224312530339 22.828427124746955
    vertex 840.7262132403057 677.7792855025273 22.828427124748906
  endloop
endfacet
facet normal -0.4999999999999384 0.5000000000000187 0.7071067811865779
  outer loop
    vertex 843.2617471462374 682.3148194084586 21.41421356237277
    vertex 840.7262132403057 677.7792855025273 22.828427124748906
    vertex 842.2262132403051 676.2792855025284 24.949747468309805
  endloop
endfacet
facet normal -0.4999999999999384 0.5000000000000187 0.7071067811865779
  outer loop
    vertex 843.2617471462374 682.3148194084586 21.41421356237277
    vertex 842.2262132403051 676.2792855025284 24.949747468309805
    vertex 844.3475335838642 678.4006058460885 24.94974746830966
  endloop
endfacet
facet normal -0.4999999999999384 0.5000000000000187 0.7071067811865779
  outer loop
    vertex 843.2617471462374 682.3148194084586 21.41421356237277
    vertex 844.3475335838642 678.4006058460885 24.94974746830966
    vertex 861.2617471462404 664.3148194084624 46.87005768508959
  endloop
endfacet
facet normal -0.4999999999999384 0.5000000000000187 0.7071067811865779
  outer loop
    vertex 861.2617471462404 664.3148194084624 46.87005768508959
    vertex 844.3475335838642 678.4006058460885 24.94974746830966
    vertex 857.347533583868 665.400605846088 43.334523779156484
  endloop
endfacet
facet normal -0.4999999999999384 0.5000000000000187 0.7071067811865779
  outer loop
    vertex 857.347533583868 665.400605846088 43.334523779156484
    vertex 855.226213240308 663.279285502529 43.334523779157465
    vertex 856.7262132403079 661.7792855025293 45.455844122717025
  endloop
endfacet
facet normal -0.4999999999999384 0.5000000000000187 0.7071067811865779
  outer loop
    vertex 823.8414369294542 657.8945091916781 24.949747468312555
    vertex 822.341436929455 659.3945091916771 22.82842712475187
    vertex 821.7201165858949 655.7731888481185 24.949747468312662
  endloop
endfacet
facet normal -0.4999999999999384 0.5000000000000187 0.7071067811865779
  outer loop
    vertex 817.8059030235222 656.8589752857429 21.414213562376315
    vertex 822.341436929455 659.3945091916771 22.82842712475187
    vertex 826.9982911789472 666.0513634411686 21.414213562375284
  endloop
endfacet
facet normal -0.4999999999999384 0.5000000000000187 0.7071067811865779
  outer loop
    vertex 822.341436929455 659.3945091916771 22.82842712475187
    vertex 817.8059030235222 656.8589752857429 21.414213562376315
    vertex 821.7201165858949 655.7731888481185 24.949747468312662
  endloop
endfacet
facet normal -0.4999999999999384 0.5000000000000187 0.7071067811865779
  outer loop
    vertex 826.9982911789472 666.0513634411686 21.414213562375284
    vertex 822.341436929455 659.3945091916771 22.82842712475187
    vertex 827.9982911789477 665.0513634411689 22.828427124750036
  endloop
endfacet
facet normal 0.7071067811865317 0.7071067811865633 -1.0402077450002122e-13
  outer loop
    vertex 834.7201165858987 642.773188848118 43.33452377915913
    vertex 835.7201165858988 641.7731888481181 41.92031021678682
    vertex 821.7201165858949 655.7731888481185 24.949747468312662
  endloop
endfacet
facet normal 0.7071067811865317 0.7071067811865633 -1.0402077450002122e-13
  outer loop
    vertex 821.2201165858953 656.2731888481181 21.414213562380663
    vertex 838.7201165858982 638.7731888481188 41.92031021678764
    vertex 822.7201165858938 654.7731888481185 19.29289321882267
  endloop
endfacet
facet normal 0.7071067811865317 0.7071067811865633 -1.0402077450002122e-13
  outer loop
    vertex 838.7201165858982 638.7731888481188 41.92031021678764
    vertex 821.2201165858953 656.2731888481181 21.414213562380663
    vertex 822.720116585895 654.7731888481189 23.53553390594117
  endloop
endfacet
facet normal 0.7071067811865317 0.7071067811865633 -1.0402077450002122e-13
  outer loop
    vertex 838.7201165858982 638.7731888481188 41.92031021678764
    vertex 822.720116585895 654.7731888481189 23.53553390594117
    vertex 821.7201165858949 655.7731888481185 24.949747468312662
  endloop
endfacet
facet normal 0.7071067811865317 0.7071067811865633 -1.0402077450002122e-13
  outer loop
    vertex 838.7201165858982 638.7731888481188 41.92031021678764
    vertex 821.7201165858949 655.7731888481185 24.949747468312662
    vertex 835.7201165858988 641.7731888481181 41.92031021678682
  endloop
endfacet
facet normal 0.7071067811865317 0.7071067811865633 -1.0402077450002122e-13
  outer loop
    vertex 838.7201165858982 638.7731888481188 41.92031021678764
    vertex 835.7201165858988 641.7731888481181 41.92031021678682
    vertex 837.2201165858983 640.2731888481187 44.041630560346825
  endloop
endfacet
facet normal 0.4999999999998508 -0.5000000000003192 -0.7071067811864274
  outer loop
    vertex 858.3475335838657 664.400605846089 41.92031021678599
    vertex 857.7262132403058 660.7792855025305 44.04163056034677
    vertex 856.2262132403062 662.2792855025299 41.9203102167869
  endloop
endfacet
facet normal 0.4999999999998508 -0.5000000000003192 -0.7071067811864274
  outer loop
    vertex 857.7262132403058 660.7792855025305 44.04163056034677
    vertex 858.3475335838657 664.400605846089 41.92031021678599
    vertex 859.8475335838656 662.9006058460895 44.041630560345766
  endloop
endfacet
facet normal -0.7071067811866858 -0.7071067811864092 2.5561436026441187e-13
  outer loop
    vertex 856.7262132403079 661.7792855025293 45.455844122717025
    vertex 856.2262132403062 662.2792855025299 41.9203102167869
    vertex 857.7262132403058 660.7792855025305 44.04163056034677
  endloop
endfacet
facet normal -0.7071067811866858 -0.7071067811864092 2.5561436026441187e-13
  outer loop
    vertex 856.2262132403062 662.2792855025299 41.9203102167869
    vertex 856.7262132403079 661.7792855025293 45.455844122717025
    vertex 855.226213240308 663.279285502529 43.334523779157465
  endloop
endfacet
facet normal 0.4999999999998959 -0.499999999999633 0.7071067811868808
  outer loop
    vertex 843.2262132403027 675.2792855025313 23.535533905941687
    vertex 844.3475335838642 678.4006058460885 24.94974746830966
    vertex 842.2262132403051 676.2792855025284 24.949747468309805
  endloop
endfacet
facet normal 0.4999999999998959 -0.499999999999633 0.7071067811868808
  outer loop
    vertex 844.3475335838642 678.4006058460885 24.94974746830966
    vertex 843.2262132403027 675.2792855025313 23.535533905941687
    vertex 845.3475335838622 677.4006058460911 23.535533905941215
  endloop
endfacet
facet normal -0.7071067811865662 -0.7071067811865289 1.623719342696516e-13
  outer loop
    vertex 835.8059030235248 638.8589752857462 46.87005768509302
    vertex 820.3059030235222 654.358975285743 17.87867965644379
    vertex 838.3059030235231 636.3589752857458 43.334523779163035
  endloop
endfacet
facet normal -0.7071067811865662 -0.7071067811865289 1.623719342696516e-13
  outer loop
    vertex 820.3059030235222 654.358975285743 17.87867965644379
    vertex 835.8059030235248 638.8589752857462 46.87005768509302
    vertex 817.8059030235222 656.8589752857429 21.414213562376315
  endloop
endfacet
facet normal -0.7071067811866126 -0.7071067811864825 3.185161437389274e-14
  outer loop
    vertex 825.9982911789489 667.0513634411687 25.65685424949424
    vertex 826.9982911789472 666.0513634411686 21.414213562375284
    vertex 827.9982911789477 665.0513634411689 22.828427124750036
  endloop
endfacet
facet normal -0.7071067811866126 -0.7071067811864825 3.185161437389274e-14
  outer loop
    vertex 830.4982911789469 662.5513634411689 19.292893218819522
    vertex 830.8267183036929 662.2229363164226 3.0
    vertex 830.9982911789465 662.0513634411681 18.585786437629093
  endloop
endfacet
facet normal -0.7071067811866126 -0.7071067811864825 3.185161437389274e-14
  outer loop
    vertex 830.8267183036929 662.2229363164226 3.0
    vertex 830.4982911789469 662.5513634411689 19.292893218819522
    vertex 823.755650491827 669.2940041282887 3.0
  endloop
endfacet
facet normal -0.7071067811866126 -0.7071067811864825 3.185161437389274e-14
  outer loop
    vertex 823.755650491827 669.2940041282887 3.0
    vertex 830.4982911789469 662.5513634411689 19.292893218819522
    vertex 829.4982911789475 663.5513634411682 17.878679656442497
  endloop
endfacet
facet normal -0.7071067811866126 -0.7071067811864825 3.185161437389274e-14
  outer loop
    vertex 823.755650491827 669.2940041282887 3.0
    vertex 829.4982911789475 663.5513634411682 17.878679656442497
    vertex 826.9982911789472 666.0513634411686 21.414213562375284
  endloop
endfacet
facet normal -0.7071067811866126 -0.7071067811864825 3.185161437389274e-14
  outer loop
    vertex 823.755650491827 669.2940041282887 3.0
    vertex 826.9982911789472 666.0513634411686 21.414213562375284
    vertex 825.9982911789489 667.0513634411687 25.65685424949424
  endloop
endfacet
facet normal 0.707106781186497 0.7071067811865981 8.647898057472874e-14
  outer loop
    vertex 836.8414369294587 644.8945091916778 43.33452377915904
    vertex 839.3414369294582 642.3945091916786 44.04163056034681
    vertex 837.8414369294585 643.8945091916781 41.92031021678682
  endloop
endfacet
facet normal 0.707106781186497 0.7071067811865981 8.647898057472874e-14
  outer loop
    vertex 839.3414369294582 642.3945091916786 44.04163056034681
    vertex 836.8414369294587 644.8945091916778 43.33452377915904
    vertex 838.3414369294582 643.394509191678 45.45584412271892
  endloop
endfacet
facet normal -0.7071067811864146 -0.7071067811866805 1.4287590704891794e-13
  outer loop
    vertex 843.2262132403027 675.2792855025313 23.535533905941687
    vertex 840.7262132403057 677.7792855025273 22.828427124748906
    vertex 841.7262132403027 676.77928550253 21.41421356238106
  endloop
endfacet
facet normal -0.7071067811864146 -0.7071067811866805 1.4287590704891794e-13
  outer loop
    vertex 840.7262132403057 677.7792855025273 22.828427124748906
    vertex 843.2262132403027 675.2792855025313 23.535533905941687
    vertex 842.2262132403051 676.2792855025284 24.949747468309805
  endloop
endfacet
facet normal 0.4999999999998563 -0.49999999999972444 0.707106781186844
  outer loop
    vertex 822.720116585895 654.7731888481189 23.53553390594117
    vertex 823.8414369294542 657.8945091916781 24.949747468312555
    vertex 821.7201165858949 655.7731888481185 24.949747468312662
  endloop
endfacet
facet normal 0.4999999999998563 -0.49999999999972444 0.707106781186844
  outer loop
    vertex 823.8414369294542 657.8945091916781 24.949747468312555
    vertex 822.720116585895 654.7731888481189 23.53553390594117
    vertex 824.8414369294544 656.8945091916792 23.535533905941126
  endloop
endfacet
facet normal 0.5000000000002929 -0.5000000000000584 -0.7071067811862993
  outer loop
    vertex 823.3414369294542 658.3945091916781 21.414213562380777
    vertex 822.720116585895 654.7731888481189 23.53553390594117
    vertex 821.2201165858953 656.2731888481181 21.414213562380663
  endloop
endfacet
facet normal 0.5000000000002929 -0.5000000000000584 -0.7071067811862993
  outer loop
    vertex 822.720116585895 654.7731888481189 23.53553390594117
    vertex 823.3414369294542 658.3945091916781 21.414213562380777
    vertex 824.8414369294544 656.8945091916792 23.535533905941126
  endloop
endfacet
facet normal -0.4999999999999918 0.4999999999998567 -0.7071067811866547
  outer loop
    vertex 857.347533583868 665.400605846088 43.334523779156484
    vertex 856.2262132403062 662.2792855025299 41.9203102167869
    vertex 855.226213240308 663.279285502529 43.334523779157465
  endloop
endfacet
facet normal -0.4999999999999918 0.4999999999998567 -0.7071067811866547
  outer loop
    vertex 856.2262132403062 662.2792855025299 41.9203102167869
    vertex 857.347533583868 665.400605846088 43.334523779156484
    vertex 858.3475335838657 664.400605846089 41.92031021678599
  endloop
endfacet
facet normal -0.4999999999999057 0.4999999999998712 -0.7071067811867054
  outer loop
    vertex 836.8414369294587 644.8945091916778 43.33452377915904
    vertex 835.7201165858988 641.7731888481181 41.92031021678682
    vertex 834.7201165858987 642.773188848118 43.33452377915913
  endloop
endfacet
facet normal -0.4999999999999057 0.4999999999998712 -0.7071067811867054
  outer loop
    vertex 835.7201165858988 641.7731888481181 41.92031021678682
    vertex 836.8414369294587 644.8945091916778 43.33452377915904
    vertex 837.8414369294585 643.8945091916781 41.92031021678682
  endloop
endfacet
facet normal -0.700279005884291 0.7002790058842858 0.13863126572106904
  outer loop
    vertex 833.069358990814 674.1224312530343 25.656854249493428
    vertex 823.755650491827 669.2940041282887 3.0
    vertex 825.9982911789489 667.0513634411687 25.65685424949424
  endloop
endfacet
facet normal -0.700279005884291 0.7002790058842858 0.13863126572106904
  outer loop
    vertex 823.755650491827 669.2940041282887 3.0
    vertex 833.069358990814 674.1224312530343 25.656854249493428
    vertex 830.8267183036926 676.3650719401542 3.0
  endloop
endfacet
facet normal 0.707021107809922 -0.7070211078098732 -0.015566188439391004
  outer loop
    vertex 830.8267183036929 662.2229363164226 3.0
    vertex 838.0693589908115 669.1224312530339 18.585786437628457
    vertex 830.9982911789465 662.0513634411681 18.585786437629093
  endloop
endfacet
facet normal 0.707021107809922 -0.7070211078098732 -0.015566188439391004
  outer loop
    vertex 838.0693589908115 669.1224312530339 18.585786437628457
    vertex 830.8267183036929 662.2229363164226 3.0
    vertex 837.8977861155583 669.2940041282883 3.0
  endloop
endfacet
facet normal 0.7071067811865969 0.7071067811864982 -2.664310999341216e-14
  outer loop
    vertex 837.8977861155583 669.2940041282883 3.0
    vertex 837.569358990813 669.6224312530338 19.292893218814676
    vertex 838.0693589908115 669.1224312530339 18.585786437628457
  endloop
endfacet
facet normal 0.7071067811865969 0.7071067811864982 -2.664310999341216e-14
  outer loop
    vertex 837.569358990813 669.6224312530338 19.292893218814676
    vertex 837.8977861155583 669.2940041282883 3.0
    vertex 830.8267183036926 676.3650719401542 3.0
  endloop
endfacet
facet normal 0.7071067811865969 0.7071067811864982 -2.664310999341216e-14
  outer loop
    vertex 837.569358990813 669.6224312530338 19.292893218814676
    vertex 830.8267183036926 676.3650719401542 3.0
    vertex 836.5693589908132 670.6224312530339 17.878679656441513
  endloop
endfacet
facet normal 0.7071067811865969 0.7071067811864982 -2.664310999341216e-14
  outer loop
    vertex 836.5693589908132 670.6224312530339 17.878679656441513
    vertex 830.8267183036926 676.3650719401542 3.0
    vertex 834.0693589908122 673.1224312530343 21.4142135623745
  endloop
endfacet
facet normal 0.7071067811865969 0.7071067811864982 -2.664310999341216e-14
  outer loop
    vertex 834.0693589908122 673.1224312530343 21.4142135623745
    vertex 830.8267183036926 676.3650719401542 3.0
    vertex 833.069358990814 674.1224312530343 25.656854249493428
  endloop
endfacet
facet normal 0.7071067811865969 0.7071067811864982 -2.664310999341216e-14
  outer loop
    vertex 833.069358990814 674.1224312530343 25.656854249493428
    vertex 835.0693589908138 672.1224312530339 22.828427124746955
    vertex 834.0693589908122 673.1224312530343 21.4142135623745
  endloop
endfacet
endsolid Camera V2
