solid Camera V3
facet normal 0.0 0.0 -1.0
  outer loop
    vertex 818.0998103312411 682.02091210074 0.0
    vertex 840.0998103312407 667.4153244718436 -3.422158370774909e-29
    vertex 818.0998103312402 667.4153244718422 -3.422158370774909e-29
  endloop
endfacet
facet normal 0.0 0.0 -1.0
  outer loop
    vertex 840.0998103312407 667.4153244718436 -3.422158370774909e-29
    vertex 818.0998103312411 682.02091210074 0.0
    vertex 840.099810331242 682.0209121007412 0.0
  endloop
endfacet
facet normal -3.885780586188048e-16 1.0 0.0
  outer loop
    vertex 818.0998103312411 682.02091210074 0.6499999999999998
    vertex 840.099810331242 682.0209121007412 0.0
    vertex 818.0998103312411 682.02091210074 0.0
  endloop
endfacet
facet normal -3.885780586188048e-16 1.0 0.0
  outer loop
    vertex 840.099810331242 682.0209121007412 0.0
    vertex 818.0998103312411 682.02091210074 0.6499999999999998
    vertex 840.099810331242 682.0209121007412 0.6499999999999999
  endloop
endfacet
facet normal -4.005634208164372e-18 1.2292660996028556e-30 1.0
  outer loop
    vertex 840.099810331241 677.0209121007388 0.6499999999999999
    vertex 818.0998103312411 682.02091210074 0.6499999999999998
    vertex 818.099810331239 677.020912100741 0.6499999999999998
  endloop
endfacet
facet normal -4.005634208164372e-18 1.2292660996028556e-30 1.0
  outer loop
    vertex 818.0998103312411 682.02091210074 0.6499999999999998
    vertex 840.099810331241 677.0209121007388 0.6499999999999999
    vertex 840.099810331242 682.0209121007412 0.6499999999999999
  endloop
endfacet
facet normal 1.9340341935650317e-13 -0.707106781186954 -0.707106781186141
  outer loop
    vertex 845.2998103312417 667.8797905659137 23.53553390594111
    vertex 842.2998103312381 670.0011109094708 21.414213562380933
    vertex 845.2998103312389 670.0011109094726 21.414213562380542
  endloop
endfacet
facet normal 1.9340341935650317e-13 -0.707106781186954 -0.707106781186141
  outer loop
    vertex 842.2998103312381 670.0011109094708 21.414213562380933
    vertex 845.2998103312417 667.8797905659137 23.53553390594111
    vertex 842.2998103312427 667.8797905659133 23.535533905941563
  endloop
endfacet
facet normal 9.141559599799811e-14 0.7071067811866558 -0.7071067811864393
  outer loop
    vertex 810.8998103312414 669.2940041282862 17.878679656443783
    vertex 824.0998103312415 672.829538034215 21.414213562375284
    vertex 824.0998103312397 669.294004128282 17.878679656442497
  endloop
endfacet
facet normal 9.141559599799811e-14 0.7071067811866558 -0.7071067811864393
  outer loop
    vertex 824.0998103312415 672.829538034215 21.414213562375284
    vertex 810.8998103312414 669.2940041282862 17.878679656443783
    vertex 810.8998103312392 672.8295380342165 21.41421356237631
  endloop
endfacet
facet normal -1.0 4.670786410532082e-13 5.238307228014321e-13
  outer loop
    vertex 845.2998103312399 647.2322725552615 44.18305191658298
    vertex 845.299810331237 667.8797905659126 19.292893218821185
    vertex 845.2998103312399 645.1109522117015 42.06173157302311
  endloop
endfacet
facet normal -1.0 4.670786410532082e-13 5.238307228014321e-13
  outer loop
    vertex 845.299810331237 667.8797905659126 19.292893218821185
    vertex 845.2998103312399 647.2322725552615 44.18305191658298
    vertex 845.2998103312399 649.3535928988221 42.0617315730233
  endloop
endfacet
facet normal -1.0 4.670786410532082e-13 5.238307228014321e-13
  outer loop
    vertex 845.299810331237 667.8797905659126 19.292893218821185
    vertex 845.2998103312399 649.3535928988221 42.0617315730233
    vertex 845.2998103312432 650.7678064611925 43.47594513539379
  endloop
endfacet
facet normal -1.0 4.670786410532082e-13 5.238307228014321e-13
  outer loop
    vertex 845.299810331237 667.8797905659126 19.292893218821185
    vertex 845.2998103312432 650.7678064611925 43.47594513539379
    vertex 845.2998103312417 667.8797905659137 23.53553390594111
  endloop
endfacet
facet normal -1.0 4.670786410532082e-13 5.238307228014321e-13
  outer loop
    vertex 845.2998103312417 667.8797905659137 23.53553390594111
    vertex 845.2998103312432 650.7678064611925 43.47594513539379
    vertex 845.299810331241 669.294004128285 24.949747468309557
  endloop
endfacet
facet normal -1.0 4.670786410532082e-13 5.238307228014321e-13
  outer loop
    vertex 845.2998103312389 670.0011109094726 21.414213562380542
    vertex 845.299810331237 667.8797905659126 19.292893218821185
    vertex 845.2998103312417 667.8797905659137 23.53553390594111
  endloop
endfacet
facet normal 1.0 7.444331710804841e-14 3.722165855388242e-13
  outer loop
    vertex 815.8998103312408 670.0011109094734 21.414213562380706
    vertex 815.8998103312396 669.2940041282855 24.94974746831248
    vertex 815.8998103312401 667.879790565913 23.53553390594105
  endloop
endfacet
facet normal 1.0 7.444331710804841e-14 3.722165855388242e-13
  outer loop
    vertex 815.8998103312396 669.2940041282855 24.94974746831248
    vertex 815.8998103312408 670.0011109094734 21.414213562380706
    vertex 815.8998103312401 671.4153244718458 22.828427124751794
  endloop
endfacet
facet normal 2.6453929853832864e-13 -0.7071067811866368 -0.7071067811864582
  outer loop
    vertex 815.8998103312408 647.2322725552641 44.183051916584084
    vertex 812.8998103312408 649.3535928988223 42.061731573024154
    vertex 815.8998103312429 649.353592898824 42.061731573024076
  endloop
endfacet
facet normal 2.6453929853832864e-13 -0.7071067811866368 -0.7071067811864582
  outer loop
    vertex 812.8998103312408 649.3535928988223 42.061731573024154
    vertex 815.8998103312408 647.2322725552641 44.183051916584084
    vertex 812.8998103312396 647.2322725552634 44.183051916584176
  endloop
endfacet
facet normal -4.4012149328078117e-14 -0.7071067811864927 0.7071067811866023
  outer loop
    vertex 824.0998103312392 667.8797905659106 19.292893218819522
    vertex 812.8998103312418 670.0011109094747 21.41421356238069
    vertex 812.8998103312393 667.8797905659153 19.292893218822698
  endloop
endfacet
facet normal -4.4012149328078117e-14 -0.7071067811864927 0.7071067811866023
  outer loop
    vertex 812.8998103312418 670.0011109094747 21.41421356238069
    vertex 824.0998103312392 667.8797905659106 19.292893218819522
    vertex 815.8998103312408 670.0011109094734 21.414213562380706
  endloop
endfacet
facet normal -4.4012149328078117e-14 -0.7071067811864927 0.7071067811866023
  outer loop
    vertex 815.8998103312408 670.0011109094734 21.414213562380706
    vertex 824.0998103312407 671.4153244718428 22.828427124750036
    vertex 815.8998103312401 671.4153244718458 22.828427124751794
  endloop
endfacet
facet normal -4.4012149328078117e-14 -0.7071067811864927 0.7071067811866023
  outer loop
    vertex 824.0998103312407 671.4153244718428 22.828427124750036
    vertex 815.8998103312408 670.0011109094734 21.414213562380706
    vertex 824.0998103312392 667.8797905659106 19.292893218819522
  endloop
endfacet
facet normal -4.4012149328078117e-14 -0.7071067811864927 0.7071067811866023
  outer loop
    vertex 824.0998103312407 671.4153244718428 22.828427124750036
    vertex 824.0998103312392 667.8797905659106 19.292893218819522
    vertex 824.0998103312397 667.1726837847249 18.585786437629093
  endloop
endfacet
facet normal -4.4012149328078117e-14 -0.7071067811864927 0.7071067811866023
  outer loop
    vertex 824.0998103312407 671.4153244718428 22.828427124750036
    vertex 824.0998103312397 667.1726837847249 18.585786437629093
    vertex 834.0998103312389 667.1726837847222 18.585786437628457
  endloop
endfacet
facet normal -4.4012149328078117e-14 -0.7071067811864927 0.7071067811866023
  outer loop
    vertex 824.0998103312407 671.4153244718428 22.828427124750036
    vertex 834.0998103312389 667.1726837847222 18.585786437628457
    vertex 824.0998103312407 674.2437515965876 25.65685424949424
  endloop
endfacet
facet normal -4.4012149328078117e-14 -0.7071067811864927 0.7071067811866023
  outer loop
    vertex 824.0998103312407 674.2437515965876 25.65685424949424
    vertex 834.0998103312389 667.1726837847222 18.585786437628457
    vertex 834.0998103312385 667.8797905659068 19.292893218814676
  endloop
endfacet
facet normal -4.4012149328078117e-14 -0.7071067811864927 0.7071067811866023
  outer loop
    vertex 834.0998103312385 667.8797905659068 19.292893218814676
    vertex 834.0998103312414 674.2437515965892 25.656854249493428
    vertex 824.0998103312407 674.2437515965876 25.65685424949424
  endloop
endfacet
facet normal -4.4012149328078117e-14 -0.7071067811864927 0.7071067811866023
  outer loop
    vertex 834.0998103312414 674.2437515965892 25.656854249493428
    vertex 834.0998103312385 667.8797905659068 19.292893218814676
    vertex 834.0998103312419 671.4153244718403 22.828427124746955
  endloop
endfacet
facet normal -4.4012149328078117e-14 -0.7071067811864927 0.7071067811866023
  outer loop
    vertex 834.0998103312419 671.4153244718403 22.828427124746955
    vertex 834.0998103312385 667.8797905659068 19.292893218814676
    vertex 845.299810331237 667.8797905659126 19.292893218821185
  endloop
endfacet
facet normal -4.4012149328078117e-14 -0.7071067811864927 0.7071067811866023
  outer loop
    vertex 834.0998103312419 671.4153244718403 22.828427124746955
    vertex 845.299810331237 667.8797905659126 19.292893218821185
    vertex 842.2998103312381 670.0011109094708 21.414213562380933
  endloop
endfacet
facet normal -4.4012149328078117e-14 -0.7071067811864927 0.7071067811866023
  outer loop
    vertex 842.2998103312381 670.0011109094708 21.414213562380933
    vertex 845.299810331237 667.8797905659126 19.292893218821185
    vertex 845.2998103312389 670.0011109094726 21.414213562380542
  endloop
endfacet
facet normal -4.4012149328078117e-14 -0.7071067811864927 0.7071067811866023
  outer loop
    vertex 842.2998103312427 671.4153244718399 22.82842712474878
    vertex 834.0998103312419 671.4153244718403 22.828427124746955
    vertex 842.2998103312381 670.0011109094708 21.414213562380933
  endloop
endfacet
facet normal -3.249791190584324e-14 0.7071067811865351 -0.7071067811865599
  outer loop
    vertex 847.2998103312387 672.8295380342128 21.41421356237282
    vertex 834.0998103312402 669.2940041282807 17.878679656441513
    vertex 834.0998103312378 672.8295380342146 21.4142135623745
  endloop
endfacet
facet normal -3.249791190584324e-14 0.7071067811865351 -0.7071067811865599
  outer loop
    vertex 834.0998103312402 669.2940041282807 17.878679656441513
    vertex 847.2998103312387 672.8295380342128 21.41421356237282
    vertex 847.2998103312409 669.294004128281 17.87867965644047
  endloop
endfacet
facet normal -1.3248544266099412e-13 -0.7071067811865851 -0.7071067811865099
  outer loop
    vertex 847.2998103312409 669.294004128281 17.87867965644047
    vertex 845.299810331237 667.8797905659126 19.292893218821185
    vertex 834.0998103312402 669.2940041282807 17.878679656441513
  endloop
endfacet
facet normal -1.3248544266099412e-13 -0.7071067811865851 -0.7071067811865099
  outer loop
    vertex 845.299810331237 667.8797905659126 19.292893218821185
    vertex 847.2998103312409 669.294004128281 17.87867965644047
    vertex 847.2998103312409 643.6967386493324 43.47594513539764
  endloop
endfacet
facet normal -1.3248544266099412e-13 -0.7071067811865851 -0.7071067811865099
  outer loop
    vertex 834.0998103312402 669.2940041282807 17.878679656441513
    vertex 845.299810331237 667.8797905659126 19.292893218821185
    vertex 834.0998103312385 667.8797905659068 19.292893218814676
  endloop
endfacet
facet normal -1.3248544266099412e-13 -0.7071067811865851 -0.7071067811865099
  outer loop
    vertex 845.299810331237 667.8797905659126 19.292893218821185
    vertex 847.2998103312409 643.6967386493324 43.47594513539764
    vertex 845.2998103312399 645.1109522117015 42.06173157302311
  endloop
endfacet
facet normal -1.3248544266099412e-13 -0.7071067811865851 -0.7071067811865099
  outer loop
    vertex 845.2998103312399 645.1109522117015 42.06173157302311
    vertex 847.2998103312409 643.6967386493324 43.47594513539764
    vertex 812.8998103312408 645.1109522117042 42.06173157302499
  endloop
endfacet
facet normal -1.3248544266099412e-13 -0.7071067811865851 -0.7071067811865099
  outer loop
    vertex 824.0998103312392 667.8797905659106 19.292893218819522
    vertex 810.8998103312414 669.2940041282862 17.878679656443783
    vertex 824.0998103312397 669.294004128282 17.878679656442497
  endloop
endfacet
facet normal -1.3248544266099412e-13 -0.7071067811865851 -0.7071067811865099
  outer loop
    vertex 810.8998103312414 669.2940041282862 17.878679656443783
    vertex 824.0998103312392 667.8797905659106 19.292893218819522
    vertex 812.8998103312393 667.8797905659153 19.292893218822698
  endloop
endfacet
facet normal -1.3248544266099412e-13 -0.7071067811865851 -0.7071067811865099
  outer loop
    vertex 810.8998103312414 669.2940041282862 17.878679656443783
    vertex 812.8998103312393 667.8797905659153 19.292893218822698
    vertex 810.8998103312392 643.6967386493354 43.47594513540034
  endloop
endfacet
facet normal -1.3248544266099412e-13 -0.7071067811865851 -0.7071067811865099
  outer loop
    vertex 810.8998103312392 643.6967386493354 43.47594513540034
    vertex 812.8998103312393 667.8797905659153 19.292893218822698
    vertex 812.8998103312408 645.1109522117042 42.06173157302499
  endloop
endfacet
facet normal -1.3248544266099412e-13 -0.7071067811865851 -0.7071067811865099
  outer loop
    vertex 810.8998103312392 643.6967386493354 43.47594513540034
    vertex 812.8998103312408 645.1109522117042 42.06173157302499
    vertex 847.2998103312409 643.6967386493324 43.47594513539764
  endloop
endfacet
facet normal 1.1466567864455548e-14 0.7071067811864581 -0.7071067811866371
  outer loop
    vertex 815.8998103312408 647.2322725552641 44.183051916584084
    vertex 812.8998103312408 645.1109522117042 42.06173157302499
    vertex 812.8998103312396 647.2322725552634 44.183051916584176
  endloop
endfacet
facet normal 1.1466567864455548e-14 0.7071067811864581 -0.7071067811866371
  outer loop
    vertex 812.8998103312408 645.1109522117042 42.06173157302499
    vertex 815.8998103312408 647.2322725552641 44.183051916584084
    vertex 845.2998103312399 645.1109522117015 42.06173157302311
  endloop
endfacet
facet normal 1.1466567864455548e-14 0.7071067811864581 -0.7071067811866371
  outer loop
    vertex 845.2998103312399 645.1109522117015 42.06173157302311
    vertex 815.8998103312408 647.2322725552641 44.183051916584084
    vertex 815.8998103312416 648.646486117635 45.59726547895619
  endloop
endfacet
facet normal 1.1466567864455548e-14 0.7071067811864581 -0.7071067811866371
  outer loop
    vertex 845.2998103312399 645.1109522117015 42.06173157302311
    vertex 815.8998103312416 648.646486117635 45.59726547895619
    vertex 842.2998103312406 647.2322725552617 44.1830519165842
  endloop
endfacet
facet normal 1.1466567864455548e-14 0.7071067811864581 -0.7071067811866371
  outer loop
    vertex 842.2998103312406 647.2322725552617 44.1830519165842
    vertex 815.8998103312416 648.646486117635 45.59726547895619
    vertex 842.2998103312395 648.646486117635 45.59726547895445
  endloop
endfacet
facet normal 1.1466567864455548e-14 0.7071067811864581 -0.7071067811866371
  outer loop
    vertex 845.2998103312399 645.1109522117015 42.06173157302311
    vertex 842.2998103312406 647.2322725552617 44.1830519165842
    vertex 845.2998103312399 647.2322725552615 44.18305191658298
  endloop
endfacet
facet normal 1.0 2.6232406980842067e-13 2.4814439035928226e-13
  outer loop
    vertex 847.2998103312409 669.294004128281 17.87867965644047
    vertex 847.2998103312394 647.2322725552596 47.01147904132694
    vertex 847.2998103312409 643.6967386493324 43.47594513539764
  endloop
endfacet
facet normal 1.0 2.6232406980842067e-13 2.4814439035928226e-13
  outer loop
    vertex 847.2998103312394 647.2322725552596 47.01147904132694
    vertex 847.2998103312409 669.294004128281 17.87867965644047
    vertex 847.2998103312387 672.8295380342128 21.41421356237282
  endloop
endfacet
facet normal -4.20992313409306e-14 -0.7071067811865848 0.7071067811865103
  outer loop
    vertex 847.2998103312394 647.2322725552596 47.01147904132694
    vertex 810.8998103312392 643.6967386493354 43.47594513540034
    vertex 847.2998103312409 643.6967386493324 43.47594513539764
  endloop
endfacet
facet normal -4.20992313409306e-14 -0.7071067811865848 0.7071067811865103
  outer loop
    vertex 810.8998103312392 643.6967386493354 43.47594513540034
    vertex 847.2998103312394 647.2322725552596 47.01147904132694
    vertex 810.899810331241 647.2322725552668 47.01147904133032
  endloop
endfacet
facet normal 1.3962451491815874e-13 0.7071067811865306 0.7071067811865646
  outer loop
    vertex 810.8998103312392 672.8295380342165 21.41421356237631
    vertex 815.8998103312401 671.4153244718458 22.828427124751794
    vertex 824.0998103312415 672.829538034215 21.414213562375284
  endloop
endfacet
facet normal 1.3962451491815874e-13 0.7071067811865306 0.7071067811865646
  outer loop
    vertex 815.8998103312401 671.4153244718458 22.828427124751794
    vertex 810.8998103312392 672.8295380342165 21.41421356237631
    vertex 812.8998103312414 669.2940041282857 24.94974746831269
  endloop
endfacet
facet normal 1.3962451491815874e-13 0.7071067811865306 0.7071067811865646
  outer loop
    vertex 812.8998103312414 669.2940041282857 24.94974746831269
    vertex 810.8998103312392 672.8295380342165 21.41421356237631
    vertex 810.899810331241 647.2322725552668 47.01147904133032
  endloop
endfacet
facet normal 1.3962451491815874e-13 0.7071067811865306 0.7071067811865646
  outer loop
    vertex 812.8998103312414 669.2940041282857 24.94974746831269
    vertex 810.899810331241 647.2322725552668 47.01147904133032
    vertex 812.8998103312408 650.7678064611944 43.475945135396465
  endloop
endfacet
facet normal 1.3962451491815874e-13 0.7071067811865306 0.7071067811865646
  outer loop
    vertex 815.8998103312401 671.4153244718458 22.828427124751794
    vertex 812.8998103312414 669.2940041282857 24.94974746831269
    vertex 815.8998103312396 669.2940041282855 24.94974746831248
  endloop
endfacet
facet normal 1.3962451491815874e-13 0.7071067811865306 0.7071067811865646
  outer loop
    vertex 824.0998103312415 672.829538034215 21.414213562375284
    vertex 815.8998103312401 671.4153244718458 22.828427124751794
    vertex 824.0998103312407 671.4153244718428 22.828427124750036
  endloop
endfacet
facet normal 1.3962451491815874e-13 0.7071067811865306 0.7071067811865646
  outer loop
    vertex 845.299810331241 669.294004128285 24.949747468309557
    vertex 842.2998103312427 671.4153244718399 22.82842712474878
    vertex 842.2998103312402 669.294004128281 24.94974746830968
  endloop
endfacet
facet normal 1.3962451491815874e-13 0.7071067811865306 0.7071067811865646
  outer loop
    vertex 810.899810331241 647.2322725552668 47.01147904133032
    vertex 815.8998103312416 648.646486117635 45.59726547895619
    vertex 812.8998103312408 650.7678064611944 43.475945135396465
  endloop
endfacet
facet normal 1.3962451491815874e-13 0.7071067811865306 0.7071067811865646
  outer loop
    vertex 815.8998103312416 648.646486117635 45.59726547895619
    vertex 810.899810331241 647.2322725552668 47.01147904133032
    vertex 847.2998103312394 647.2322725552596 47.01147904132694
  endloop
endfacet
facet normal 1.3962451491815874e-13 0.7071067811865306 0.7071067811865646
  outer loop
    vertex 815.8998103312416 648.646486117635 45.59726547895619
    vertex 847.2998103312394 647.2322725552596 47.01147904132694
    vertex 842.2998103312395 648.646486117635 45.59726547895445
  endloop
endfacet
facet normal 1.3962451491815874e-13 0.7071067811865306 0.7071067811865646
  outer loop
    vertex 842.2998103312395 648.646486117635 45.59726547895445
    vertex 847.2998103312394 647.2322725552596 47.01147904132694
    vertex 842.2998103312427 650.7678064611961 43.47594513539498
  endloop
endfacet
facet normal 1.3962451491815874e-13 0.7071067811865306 0.7071067811865646
  outer loop
    vertex 842.2998103312427 650.7678064611961 43.47594513539498
    vertex 847.2998103312394 647.2322725552596 47.01147904132694
    vertex 845.2998103312432 650.7678064611925 43.47594513539379
  endloop
endfacet
facet normal 1.3962451491815874e-13 0.7071067811865306 0.7071067811865646
  outer loop
    vertex 845.2998103312432 650.7678064611925 43.47594513539379
    vertex 847.2998103312394 647.2322725552596 47.01147904132694
    vertex 847.2998103312387 672.8295380342128 21.41421356237282
  endloop
endfacet
facet normal 1.3962451491815874e-13 0.7071067811865306 0.7071067811865646
  outer loop
    vertex 834.0998103312419 671.4153244718403 22.828427124746955
    vertex 847.2998103312387 672.8295380342128 21.41421356237282
    vertex 834.0998103312378 672.8295380342146 21.4142135623745
  endloop
endfacet
facet normal 1.3962451491815874e-13 0.7071067811865306 0.7071067811865646
  outer loop
    vertex 847.2998103312387 672.8295380342128 21.41421356237282
    vertex 834.0998103312419 671.4153244718403 22.828427124746955
    vertex 842.2998103312427 671.4153244718399 22.82842712474878
  endloop
endfacet
facet normal 1.3962451491815874e-13 0.7071067811865306 0.7071067811865646
  outer loop
    vertex 847.2998103312387 672.8295380342128 21.41421356237282
    vertex 842.2998103312427 671.4153244718399 22.82842712474878
    vertex 845.299810331241 669.294004128285 24.949747468309557
  endloop
endfacet
facet normal 1.3962451491815874e-13 0.7071067811865306 0.7071067811865646
  outer loop
    vertex 847.2998103312387 672.8295380342128 21.41421356237282
    vertex 845.299810331241 669.294004128285 24.949747468309557
    vertex 845.2998103312432 650.7678064611925 43.47594513539379
  endloop
endfacet
facet normal 1.3962451491815874e-13 0.7071067811865306 0.7071067811865646
  outer loop
    vertex 815.8998103312425 650.7678064611966 43.4759451353963
    vertex 812.8998103312408 650.7678064611944 43.475945135396465
    vertex 815.8998103312416 648.646486117635 45.59726547895619
  endloop
endfacet
facet normal 1.0 -1.6492635396882058e-13 -1.3534921083566065e-13
  outer loop
    vertex 812.8998103312393 667.8797905659153 19.292893218822698
    vertex 812.8998103312396 647.2322725552634 44.183051916584176
    vertex 812.8998103312408 645.1109522117042 42.06173157302499
  endloop
endfacet
facet normal 1.0 -1.6492635396882058e-13 -1.3534921083566065e-13
  outer loop
    vertex 812.8998103312396 647.2322725552634 44.183051916584176
    vertex 812.8998103312393 667.8797905659153 19.292893218822698
    vertex 812.8998103312408 649.3535928988223 42.061731573024154
  endloop
endfacet
facet normal 1.0 -1.6492635396882058e-13 -1.3534921083566065e-13
  outer loop
    vertex 812.8998103312408 649.3535928988223 42.061731573024154
    vertex 812.8998103312393 667.8797905659153 19.292893218822698
    vertex 812.8998103312408 650.7678064611944 43.475945135396465
  endloop
endfacet
facet normal 1.0 -1.6492635396882058e-13 -1.3534921083566065e-13
  outer loop
    vertex 812.8998103312408 650.7678064611944 43.475945135396465
    vertex 812.8998103312393 667.8797905659153 19.292893218822698
    vertex 812.8998103312418 667.8797905659153 23.535533905941197
  endloop
endfacet
facet normal 1.0 -1.6492635396882058e-13 -1.3534921083566065e-13
  outer loop
    vertex 812.8998103312418 667.8797905659153 23.535533905941197
    vertex 812.8998103312393 667.8797905659153 19.292893218822698
    vertex 812.8998103312418 670.0011109094747 21.41421356238069
  endloop
endfacet
facet normal 1.0 -1.6492635396882058e-13 -1.3534921083566065e-13
  outer loop
    vertex 812.8998103312414 669.2940041282857 24.94974746831269
    vertex 812.8998103312408 650.7678064611944 43.475945135396465
    vertex 812.8998103312418 667.8797905659153 23.535533905941197
  endloop
endfacet
facet normal -1.5154843976452416e-13 -0.7071067811865156 -0.7071067811865794
  outer loop
    vertex 842.2998103312417 649.3535928988213 42.061731573024424
    vertex 845.2998103312399 647.2322725552615 44.18305191658298
    vertex 842.2998103312406 647.2322725552617 44.1830519165842
  endloop
endfacet
facet normal -1.5154843976452416e-13 -0.7071067811865156 -0.7071067811865794
  outer loop
    vertex 845.2998103312399 647.2322725552615 44.18305191658298
    vertex 842.2998103312417 649.3535928988213 42.061731573024424
    vertex 845.2998103312399 649.3535928988221 42.0617315730233
  endloop
endfacet
facet normal -1.0 5.104684601666775e-13 -5.104684601677701e-13
  outer loop
    vertex 842.2998103312395 648.646486117635 45.59726547895445
    vertex 842.2998103312417 649.3535928988213 42.061731573024424
    vertex 842.2998103312406 647.2322725552617 44.1830519165842
  endloop
endfacet
facet normal -1.0 5.104684601666775e-13 -5.104684601677701e-13
  outer loop
    vertex 842.2998103312417 649.3535928988213 42.061731573024424
    vertex 842.2998103312395 648.646486117635 45.59726547895445
    vertex 842.2998103312427 650.7678064611961 43.47594513539498
  endloop
endfacet
facet normal 6.154814317875087e-13 -0.7071067811862346 0.7071067811868605
  outer loop
    vertex 842.2998103312427 667.8797905659133 23.535533905941563
    vertex 845.299810331241 669.294004128285 24.949747468309557
    vertex 842.2998103312402 669.294004128281 24.94974746830968
  endloop
endfacet
facet normal 6.154814317875087e-13 -0.7071067811862346 0.7071067811868605
  outer loop
    vertex 845.299810331241 669.294004128285 24.949747468309557
    vertex 842.2998103312427 667.8797905659133 23.535533905941563
    vertex 845.2998103312417 667.8797905659137 23.53553390594111
  endloop
endfacet
facet normal -1.0 -2.1978503146131263e-14 -2.906834287067452e-14
  outer loop
    vertex 810.899810331241 647.2322725552668 47.01147904133032
    vertex 810.8998103312414 669.2940041282862 17.878679656443783
    vertex 810.8998103312392 643.6967386493354 43.47594513540034
  endloop
endfacet
facet normal -1.0 -2.1978503146131263e-14 -2.906834287067452e-14
  outer loop
    vertex 810.8998103312414 669.2940041282862 17.878679656443783
    vertex 810.899810331241 647.2322725552668 47.01147904133032
    vertex 810.8998103312392 672.8295380342165 21.41421356237631
  endloop
endfacet
facet normal 1.0 -4.041208642989815e-13 2.76503749257078e-13
  outer loop
    vertex 815.8998103312429 649.353592898824 42.061731573024076
    vertex 815.8998103312416 648.646486117635 45.59726547895619
    vertex 815.8998103312408 647.2322725552641 44.183051916584084
  endloop
endfacet
facet normal 1.0 -4.041208642989815e-13 2.76503749257078e-13
  outer loop
    vertex 815.8998103312416 648.646486117635 45.59726547895619
    vertex 815.8998103312429 649.353592898824 42.061731573024076
    vertex 815.8998103312425 650.7678064611966 43.4759451353963
  endloop
endfacet
facet normal -1.0 1.2761711504382779e-13 6.380855752103262e-13
  outer loop
    vertex 842.2998103312402 669.294004128281 24.94974746830968
    vertex 842.2998103312381 670.0011109094708 21.414213562380933
    vertex 842.2998103312427 667.8797905659133 23.535533905941563
  endloop
endfacet
facet normal -1.0 1.2761711504382779e-13 6.380855752103262e-13
  outer loop
    vertex 842.2998103312381 670.0011109094708 21.414213562380933
    vertex 842.2998103312402 669.294004128281 24.94974746830968
    vertex 842.2998103312427 671.4153244718399 22.82842712474878
  endloop
endfacet
facet normal -2.6918863056816705e-13 -0.7071067811865553 0.7071067811865398
  outer loop
    vertex 815.8998103312396 669.2940041282855 24.94974746831248
    vertex 812.8998103312418 667.8797905659153 23.535533905941197
    vertex 815.8998103312401 667.879790565913 23.53553390594105
  endloop
endfacet
facet normal -2.6918863056816705e-13 -0.7071067811865553 0.7071067811865398
  outer loop
    vertex 812.8998103312418 667.8797905659153 23.535533905941197
    vertex 815.8998103312396 669.2940041282855 24.94974746831248
    vertex 812.8998103312414 669.2940041282857 24.94974746831269
  endloop
endfacet
facet normal -4.1742868040162457e-13 -0.7071067811866397 -0.7071067811864553
  outer loop
    vertex 815.8998103312408 670.0011109094734 21.414213562380706
    vertex 812.8998103312418 667.8797905659153 23.535533905941197
    vertex 812.8998103312418 670.0011109094747 21.41421356238069
  endloop
endfacet
facet normal -4.1742868040162457e-13 -0.7071067811866397 -0.7071067811864553
  outer loop
    vertex 812.8998103312418 667.8797905659153 23.535533905941197
    vertex 815.8998103312408 670.0011109094734 21.414213562380706
    vertex 815.8998103312401 667.879790565913 23.53553390594105
  endloop
endfacet
facet normal 9.571249009778033e-14 0.7071067811860174 -0.7071067811870776
  outer loop
    vertex 842.2998103312427 650.7678064611961 43.47594513539498
    vertex 845.2998103312399 649.3535928988221 42.0617315730233
    vertex 842.2998103312417 649.3535928988213 42.061731573024424
  endloop
endfacet
facet normal 9.571249009778033e-14 0.7071067811860174 -0.7071067811870776
  outer loop
    vertex 845.2998103312399 649.3535928988221 42.0617315730233
    vertex 842.2998103312427 650.7678064611961 43.47594513539498
    vertex 845.2998103312432 650.7678064611925 43.47594513539379
  endloop
endfacet
facet normal -4.453246725765869e-13 0.707106781186532 -0.707106781186563
  outer loop
    vertex 815.8998103312425 650.7678064611966 43.4759451353963
    vertex 812.8998103312408 649.3535928988223 42.061731573024154
    vertex 812.8998103312408 650.7678064611944 43.475945135396465
  endloop
endfacet
facet normal -4.453246725765869e-13 0.707106781186532 -0.707106781186563
  outer loop
    vertex 812.8998103312408 649.3535928988223 42.061731573024154
    vertex 815.8998103312425 650.7678064611966 43.4759451353963
    vertex 815.8998103312429 649.353592898824 42.061731573024076
  endloop
endfacet
facet normal 1.0254423572900581e-13 1.0 7.441908654937185e-30
  outer loop
    vertex 818.099810331239 677.020912100741 2.35
    vertex 840.099810331241 677.0209121007388 0.6499999999999999
    vertex 818.099810331239 677.020912100741 0.6499999999999998
  endloop
endfacet
facet normal 1.0254423572900581e-13 1.0 7.441908654937185e-30
  outer loop
    vertex 840.099810331241 677.0209121007388 0.6499999999999999
    vertex 818.099810331239 677.020912100741 2.35
    vertex 840.099810331241 677.0209121007388 2.35
  endloop
endfacet
facet normal 1.6022536832657486e-17 -4.914195276842487e-30 -1.0
  outer loop
    vertex 818.0998103312411 682.02091210074 2.35
    vertex 840.099810331241 677.0209121007388 2.35
    vertex 818.099810331239 677.020912100741 2.35
  endloop
endfacet
facet normal 1.6022536832657486e-17 -4.914195276842487e-30 -1.0
  outer loop
    vertex 840.099810331241 677.0209121007388 2.35
    vertex 818.0998103312411 682.02091210074 2.35
    vertex 840.099810331242 682.0209121007412 2.35
  endloop
endfacet
facet normal 4.207770212160986e-14 -1.0 -1.5904421925386672e-29
  outer loop
    vertex 840.0998103312407 667.4153244718436 3.0
    vertex 818.0998103312402 667.4153244718422 -3.422158370774909e-29
    vertex 840.0998103312407 667.4153244718436 -3.422158370774909e-29
  endloop
endfacet
facet normal 4.207770212160986e-14 -1.0 -1.5904421925386672e-29
  outer loop
    vertex 818.0998103312402 667.4153244718422 -3.422158370774909e-29
    vertex 840.0998103312407 667.4153244718436 3.0
    vertex 818.0998103312402 667.4153244718422 3.0
  endloop
endfacet
facet normal 4.207770212160986e-14 -1.0 -1.5904421925386672e-29
  outer loop
    vertex 818.0998103312402 667.4153244718422 3.0
    vertex 840.0998103312407 667.4153244718436 3.0
    vertex 834.0998103312411 667.4153244718417 3.0
  endloop
endfacet
facet normal 4.207770212160986e-14 -1.0 -1.5904421925386672e-29
  outer loop
    vertex 818.0998103312402 667.4153244718422 3.0
    vertex 834.0998103312411 667.4153244718417 3.0
    vertex 824.0998103312398 667.415324471844 3.0
  endloop
endfacet
facet normal 1.0 -8.694826550625642e-14 4.012890309180998e-30
  outer loop
    vertex 840.0998103312407 667.4153244718436 -3.422158370774909e-29
    vertex 840.099810331241 677.0209121007388 0.6499999999999999
    vertex 840.0998103312407 667.4153244718436 3.0
  endloop
endfacet
facet normal 1.0 -8.694826550625642e-14 4.012890309180998e-30
  outer loop
    vertex 840.099810331241 677.0209121007388 0.6499999999999999
    vertex 840.0998103312407 667.4153244718436 -3.422158370774909e-29
    vertex 840.099810331242 682.0209121007412 0.0
  endloop
endfacet
facet normal 1.0 -8.694826550625642e-14 4.012890309180998e-30
  outer loop
    vertex 840.099810331241 677.0209121007388 0.6499999999999999
    vertex 840.099810331242 682.0209121007412 0.0
    vertex 840.099810331242 682.0209121007412 0.6499999999999999
  endloop
endfacet
facet normal 1.0 -8.694826550625642e-14 4.012890309180998e-30
  outer loop
    vertex 840.0998103312407 667.4153244718436 3.0
    vertex 840.099810331241 677.0209121007388 2.35
    vertex 840.099810331242 682.0209121007412 3.0
  endloop
endfacet
facet normal 1.0 -8.694826550625642e-14 4.012890309180998e-30
  outer loop
    vertex 840.099810331241 677.0209121007388 2.35
    vertex 840.0998103312407 667.4153244718436 3.0
    vertex 840.099810331241 677.0209121007388 0.6499999999999999
  endloop
endfacet
facet normal 1.0 -8.694826550625642e-14 4.012890309180998e-30
  outer loop
    vertex 840.099810331242 682.0209121007412 3.0
    vertex 840.099810331241 677.0209121007388 2.35
    vertex 840.099810331242 682.0209121007412 2.35
  endloop
endfacet
facet normal -1.0 5.010536063605123e-14 6.144914305581514e-14
  outer loop
    vertex 824.0998103312407 674.2437515965876 25.65685424949424
    vertex 824.0998103312415 672.829538034215 21.414213562375284
    vertex 824.0998103312407 671.4153244718428 22.828427124750036
  endloop
endfacet
facet normal -1.0 5.010536063605123e-14 6.144914305581514e-14
  outer loop
    vertex 824.0998103312392 667.8797905659106 19.292893218819522
    vertex 824.0998103312398 667.415324471844 3.0
    vertex 824.0998103312397 667.1726837847249 18.585786437629093
  endloop
endfacet
facet normal -1.0 5.010536063605123e-14 6.144914305581514e-14
  outer loop
    vertex 824.0998103312398 667.415324471844 3.0
    vertex 824.0998103312392 667.8797905659106 19.292893218819522
    vertex 824.0998103312389 677.4153244718425 3.0
  endloop
endfacet
facet normal -1.0 5.010536063605123e-14 6.144914305581514e-14
  outer loop
    vertex 824.0998103312389 677.4153244718425 3.0
    vertex 824.0998103312392 667.8797905659106 19.292893218819522
    vertex 824.0998103312397 669.294004128282 17.878679656442497
  endloop
endfacet
facet normal -1.0 5.010536063605123e-14 6.144914305581514e-14
  outer loop
    vertex 824.0998103312389 677.4153244718425 3.0
    vertex 824.0998103312397 669.294004128282 17.878679656442497
    vertex 824.0998103312415 672.829538034215 21.414213562375284
  endloop
endfacet
facet normal -1.0 5.010536063605123e-14 6.144914305581514e-14
  outer loop
    vertex 824.0998103312389 677.4153244718425 3.0
    vertex 824.0998103312415 672.829538034215 21.414213562375284
    vertex 824.0998103312407 674.2437515965876 25.65685424949424
  endloop
endfacet
facet normal -3.885780586188048e-16 1.0 0.0
  outer loop
    vertex 818.0998103312411 682.02091210074 3.0
    vertex 840.099810331242 682.0209121007412 2.35
    vertex 818.0998103312411 682.02091210074 2.35
  endloop
endfacet
facet normal -3.885780586188048e-16 1.0 0.0
  outer loop
    vertex 840.099810331242 682.0209121007412 2.35
    vertex 818.0998103312411 682.02091210074 3.0
    vertex 840.099810331242 682.0209121007412 3.0
  endloop
endfacet
facet normal -0.0 -0.0 1.0
  outer loop
    vertex 824.0998103312398 667.415324471844 3.0
    vertex 834.0998103312411 677.4153244718428 3.0
    vertex 824.0998103312389 677.4153244718425 3.0
  endloop
endfacet
facet normal -0.0 -0.0 1.0
  outer loop
    vertex 834.0998103312411 677.4153244718428 3.0
    vertex 824.0998103312398 667.415324471844 3.0
    vertex 834.0998103312411 667.4153244718417 3.0
  endloop
endfacet
facet normal 1.0 -1.3062281318395264e-13 3.4196821758624794e-14
  outer loop
    vertex 834.0998103312411 667.4153244718417 3.0
    vertex 834.0998103312385 667.8797905659068 19.292893218814676
    vertex 834.0998103312389 667.1726837847222 18.585786437628457
  endloop
endfacet
facet normal 1.0 -1.3062281318395264e-13 3.4196821758624794e-14
  outer loop
    vertex 834.0998103312385 667.8797905659068 19.292893218814676
    vertex 834.0998103312411 667.4153244718417 3.0
    vertex 834.0998103312411 677.4153244718428 3.0
  endloop
endfacet
facet normal 1.0 -1.3062281318395264e-13 3.4196821758624794e-14
  outer loop
    vertex 834.0998103312385 667.8797905659068 19.292893218814676
    vertex 834.0998103312411 677.4153244718428 3.0
    vertex 834.0998103312402 669.2940041282807 17.878679656441513
  endloop
endfacet
facet normal 1.0 -1.3062281318395264e-13 3.4196821758624794e-14
  outer loop
    vertex 834.0998103312402 669.2940041282807 17.878679656441513
    vertex 834.0998103312411 677.4153244718428 3.0
    vertex 834.0998103312378 672.8295380342146 21.4142135623745
  endloop
endfacet
facet normal 1.0 -1.3062281318395264e-13 3.4196821758624794e-14
  outer loop
    vertex 834.0998103312378 672.8295380342146 21.4142135623745
    vertex 834.0998103312411 677.4153244718428 3.0
    vertex 834.0998103312414 674.2437515965892 25.656854249493428
  endloop
endfacet
facet normal 1.0 -1.3062281318395264e-13 3.4196821758624794e-14
  outer loop
    vertex 834.0998103312414 674.2437515965892 25.656854249493428
    vertex 834.0998103312419 671.4153244718403 22.828427124746955
    vertex 834.0998103312378 672.8295380342146 21.4142135623745
  endloop
endfacet
facet normal -8.820530336278581e-14 0.9903440675667186 0.13863126572100246
  outer loop
    vertex 824.0998103312407 674.2437515965876 25.65685424949424
    vertex 834.0998103312411 677.4153244718428 3.0
    vertex 824.0998103312389 677.4153244718425 3.0
  endloop
endfacet
facet normal -8.820530336278581e-14 0.9903440675667186 0.13863126572100246
  outer loop
    vertex 834.0998103312411 677.4153244718428 3.0
    vertex 824.0998103312407 674.2437515965876 25.65685424949424
    vertex 834.0998103312414 674.2437515965892 25.656854249493428
  endloop
endfacet
facet normal -2.486227717455022e-13 -0.9998788395488073 -0.015566188439390036
  outer loop
    vertex 834.0998103312389 667.1726837847222 18.585786437628457
    vertex 824.0998103312398 667.415324471844 3.0
    vertex 834.0998103312411 667.4153244718417 3.0
  endloop
endfacet
facet normal -2.486227717455022e-13 -0.9998788395488073 -0.015566188439390036
  outer loop
    vertex 824.0998103312398 667.415324471844 3.0
    vertex 834.0998103312389 667.1726837847222 18.585786437628457
    vertex 824.0998103312397 667.1726837847249 18.585786437629093
  endloop
endfacet
facet normal -1.0 1.8420021872648654e-14 -1.4215302020503276e-14
  outer loop
    vertex 818.0998103312402 667.4153244718422 3.0
    vertex 818.099810331239 677.020912100741 2.35
    vertex 818.0998103312402 667.4153244718422 -3.422158370774909e-29
  endloop
endfacet
facet normal -1.0 1.8420021872648654e-14 -1.4215302020503276e-14
  outer loop
    vertex 818.099810331239 677.020912100741 2.35
    vertex 818.0998103312402 667.4153244718422 3.0
    vertex 818.0998103312411 682.02091210074 3.0
  endloop
endfacet
facet normal -1.0 1.8420021872648654e-14 -1.4215302020503276e-14
  outer loop
    vertex 818.099810331239 677.020912100741 2.35
    vertex 818.0998103312411 682.02091210074 3.0
    vertex 818.0998103312411 682.02091210074 2.35
  endloop
endfacet
facet normal -1.0 1.8420021872648654e-14 -1.4215302020503276e-14
  outer loop
    vertex 818.0998103312402 667.4153244718422 -3.422158370774909e-29
    vertex 818.099810331239 677.020912100741 0.6499999999999998
    vertex 818.0998103312411 682.02091210074 0.0
  endloop
endfacet
facet normal -1.0 1.8420021872648654e-14 -1.4215302020503276e-14
  outer loop
    vertex 818.099810331239 677.020912100741 0.6499999999999998
    vertex 818.0998103312402 667.4153244718422 -3.422158370774909e-29
    vertex 818.099810331239 677.020912100741 2.35
  endloop
endfacet
facet normal -1.0 1.8420021872648654e-14 -1.4215302020503276e-14
  outer loop
    vertex 818.0998103312411 682.02091210074 0.0
    vertex 818.099810331239 677.020912100741 0.6499999999999998
    vertex 818.0998103312411 682.02091210074 0.6499999999999998
  endloop
endfacet
facet normal -0.0 -0.0 1.0
  outer loop
    vertex 824.0998103312398 667.415324471844 3.0
    vertex 818.0998103312411 682.02091210074 3.0
    vertex 818.0998103312402 667.4153244718422 3.0
  endloop
endfacet
facet normal -0.0 -0.0 1.0
  outer loop
    vertex 818.0998103312411 682.02091210074 3.0
    vertex 824.0998103312398 667.415324471844 3.0
    vertex 824.0998103312389 677.4153244718425 3.0
  endloop
endfacet
facet normal -0.0 -0.0 1.0
  outer loop
    vertex 840.0998103312407 667.4153244718436 3.0
    vertex 834.0998103312411 677.4153244718428 3.0
    vertex 834.0998103312411 667.4153244718417 3.0
  endloop
endfacet
facet normal -0.0 -0.0 1.0
  outer loop
    vertex 824.0998103312389 677.4153244718425 3.0
    vertex 840.099810331242 682.0209121007412 3.0
    vertex 818.0998103312411 682.02091210074 3.0
  endloop
endfacet
facet normal -0.0 -0.0 1.0
  outer loop
    vertex 840.099810331242 682.0209121007412 3.0
    vertex 824.0998103312389 677.4153244718425 3.0
    vertex 834.0998103312411 677.4153244718428 3.0
  endloop
endfacet
facet normal -0.0 -0.0 1.0
  outer loop
    vertex 840.099810331242 682.0209121007412 3.0
    vertex 834.0998103312411 677.4153244718428 3.0
    vertex 840.0998103312407 667.4153244718436 3.0
  endloop
endfacet
endsolid Camera V3
